FFmpeg version SVN-r25716, Copyright (c) 2000-2010 the FFmpeg developers  built on Nov 10 2010 12:23:18 with gcc 4.1.2 20080704 (Red Hat 4.1.2-48)  configuration: --enable-libmp3lame --enable-shared --disable-mmx --arch=x86_64  libavutil     50.33. 0 / 50.33. 0  libavcore      0.12. 1 /  0.12. 1  libavcodec    52.94. 4 / 52.94. 4  libavformat   52.84. 0 / 52.84. 0  libavdevice   52. 2. 2 / 52. 2. 2  libavfilter    1.59. 0 /  1.59. 0  libswscale     0.12. 0 /  0.12. 0Seems stream 0 codec frame rate differs from container frame rate: 5994.00 (5994/1) -> 29.97 (2997/100)Input #0, mov,mp4,m4a,3gp,3g2,mj2, from '/RAID10/data/converted_video_files/25611.mov':  Metadata:    major_brand     : qt      minor_version   : 537199360    compatible_brands: qt    Duration: 00:00:33.33, start: 0.000000, bitrate: 1696 kb/s    Stream #0.0(eng): Video: h264, yuv420p, 720x480, 1692 kb/s, 29.97 fps, 29.97 tbr, 2997 tbn, 5994 tbc[buffer @ 0xd5f7350] w:720 h:480 pixfmt:yuv420pOutput #0, flv, to '/RAID10/data/converted_video_files/25611.flv':  Metadata:    encoder         : Lavf52.84.0    Stream #0.0(eng): Video: flv, yuv420p, 720x480, q=2-31, 600 kb/s, 1k tbn, 24 tbcStream mapping:  Stream #0.0 -> #0.0Press [q] to stop encodingframe=   38 fps=  0 q=2.0 size=     164kB time=1.58 bitrate= 846.9kbits/s dup=0 drop=9    frame=   93 fps= 90 q=2.0 size=     371kB time=3.88 bitrate= 783.5kbits/s dup=0 drop=23    frame=  153 fps= 99 q=2.0 size=     601kB time=6.38 bitrate= 772.5kbits/s dup=0 drop=38    frame=  210 fps=101 q=2.0 size=     831kB time=8.75 bitrate= 778.2kbits/s dup=0 drop=52    frame=  261 fps=102 q=2.0 size=    1045kB time=10.88 bitrate= 787.4kbits/s dup=0 drop=64    frame=  317 fps=104 q=2.6 size=    1302kB time=13.21 bitrate= 807.7kbits/s dup=0 drop=78    frame=  368 fps=103 q=3.2 size=    1493kB time=15.33 bitrate= 797.7kbits/s dup=0 drop=91    frame=  430 fps=105 q=3.6 size=    1693kB time=17.92 bitrate= 773.9kbits/s dup=0 drop=106    frame=  490 fps=107 q=2.6 size=    1857kB time=20.42 bitrate= 745.2kbits/s dup=0 drop=121    frame=  526 fps=103 q=3.4 size=    1968kB time=21.92 bitrate= 735.6kbits/s dup=0 drop=130    frame=  585 fps=105 q=2.3 size=    2171kB time=24.38 bitrate= 729.6kbits/s dup=0 drop=145    frame=  644 fps=106 q=4.7 size=    2331kB time=26.83 bitrate= 711.6kbits/s dup=0 drop=160    frame=  706 fps=107 q=3.2 size=    2511kB time=29.42 bitrate= 699.3kbits/s dup=0 drop=175    frame=  769 fps=107 q=3.1 size=    2716kB time=32.04 bitrate= 694.3kbits/s dup=0 drop=191    frame=  800 fps=108 q=3.5 Lsize=    2801kB time=33.33 bitrate= 688.3kbits/s dup=0 drop=199    video:2788kB audio:0kB global headers:0kB muxing overhead 0.455684%